REM DIRINDEX 1\2,1\3,1\4,1\5
REM DIRNAME folder01,folder02,folder03,folder04,folder05
TITLE ""
FILE "1Q_t_0730-0739.mp3" MP3
  TRACK 01 AUDIO
    TITLE "3:cjc004_3093"
    INDEX 01 00:00:00
  TRACK 02 AUDIO
    TITLE "0:"
    INDEX 01 00:01:03
  TRACK 03 AUDIO
    TITLE "4:cjc004_3094"
    INDEX 01 00:01:32
  TRACK 04 AUDIO
    TITLE "0:"
    INDEX 01 00:02:51
  TRACK 05 AUDIO
    TITLE "5:cjc004_3095"
    INDEX 01 00:03:00
  TRACK 06 AUDIO
    TITLE "0:"
    INDEX 01 00:07:43
  TRACK 07 AUDIO
    TITLE "3:cjc004_3096"
    INDEX 01 00:08:23
  TRACK 08 AUDIO
    TITLE "0:"
    INDEX 01 00:09:42
  TRACK 09 AUDIO
    TITLE "4:cjc004_3097"
    INDEX 01 00:09:71
  TRACK 10 AUDIO
    TITLE "0:"
    INDEX 01 00:11:60
  TRACK 11 AUDIO
    TITLE "5:cjc004_3098"
    INDEX 01 00:12:14
  TRACK 12 AUDIO
    TITLE "0:"
    INDEX 01 00:16:24
  TRACK 13 AUDIO
    TITLE "3:cjc004_3099"
    INDEX 01 00:17:02
  TRACK 14 AUDIO
    TITLE "0:"
    INDEX 01 00:18:42
  TRACK 15 AUDIO
    TITLE "4:cjc004_3100"
    INDEX 01 00:18:70
  TRACK 16 AUDIO
    TITLE "0:"
    INDEX 01 00:21:21
  TRACK 17 AUDIO
    TITLE "5:cjc004_3101"
    INDEX 01 00:21:45
  TRACK 18 AUDIO
    TITLE "0:"
    INDEX 01 00:26:64
  TRACK 19 AUDIO
    TITLE "3:cjc004_3102"
    INDEX 01 00:27:45
  TRACK 20 AUDIO
    TITLE "0:"
    INDEX 01 00:28:57
  TRACK 21 AUDIO
    TITLE "4:cjc004_3103"
    INDEX 01 00:29:11
  TRACK 22 AUDIO
    TITLE "0:"
    INDEX 01 00:30:28
  TRACK 23 AUDIO
    TITLE "5:cjc004_3104"
    INDEX 01 00:30:55
  TRACK 24 AUDIO
    TITLE "0:"
    INDEX 01 00:35:37
  TRACK 25 AUDIO
    TITLE "3:cjc004_3105"
    INDEX 01 00:36:19
  TRACK 26 AUDIO
    TITLE "0:"
    INDEX 01 00:37:30
  TRACK 27 AUDIO
    TITLE "4:cjc004_3106"
    INDEX 01 00:37:57
  TRACK 28 AUDIO
    TITLE "0:"
    INDEX 01 00:38:57
  TRACK 29 AUDIO
    TITLE "5:cjc004_3107"
    INDEX 01 00:39:09
  TRACK 30 AUDIO
    TITLE "0:"
    INDEX 01 00:42:51
  TRACK 31 AUDIO
    TITLE "3:cjc004_3108"
    INDEX 01 00:43:27
  TRACK 32 AUDIO
    TITLE "0:"
    INDEX 01 00:44:63
  TRACK 33 AUDIO
    TITLE "4:cjc004_3109"
    INDEX 01 00:45:18
  TRACK 34 AUDIO
    TITLE "0:"
    INDEX 01 00:46:33
  TRACK 35 AUDIO
    TITLE "5:cjc004_3110"
    INDEX 01 00:46:60
  TRACK 36 AUDIO
    TITLE "0:"
    INDEX 01 00:51:16
  TRACK 37 AUDIO
    TITLE "3:cjc004_3111"
    INDEX 01 00:51:71
  TRACK 38 AUDIO
    TITLE "0:"
    INDEX 01 00:53:31
  TRACK 39 AUDIO
    TITLE "4:cjc004_3112"
    INDEX 01 00:53:58
  TRACK 40 AUDIO
    TITLE "0:"
    INDEX 01 00:55:06
  TRACK 41 AUDIO
    TITLE "5:cjc004_3113"
    INDEX 01 00:55:28
  TRACK 42 AUDIO
    TITLE "0:"
    INDEX 01 01:00:45
  TRACK 43 AUDIO
    TITLE "3:cjc004_3114"
    INDEX 01 01:01:25
  TRACK 44 AUDIO
    TITLE "0:"
    INDEX 01 01:02:46
  TRACK 45 AUDIO
    TITLE "4:cjc004_3115"
    INDEX 01 01:02:71
  TRACK 46 AUDIO
    TITLE "0:"
    INDEX 01 01:04:19
  TRACK 47 AUDIO
    TITLE "5:cjc004_3116"
    INDEX 01 01:04:47
  TRACK 48 AUDIO
    TITLE "0:"
    INDEX 01 01:08:70
  TRACK 49 AUDIO
    TITLE "3:cjc004_3117"
    INDEX 01 01:09:46
  TRACK 50 AUDIO
    TITLE "0:"
    INDEX 01 01:10:63
  TRACK 51 AUDIO
    TITLE "4:cjc004_3118"
    INDEX 01 01:11:11
  TRACK 52 AUDIO
    TITLE "0:"
    INDEX 01 01:12:23
  TRACK 53 AUDIO
    TITLE "5:cjc004_3119"
    INDEX 01 01:12:50
  TRACK 54 AUDIO
    TITLE "0:"
    INDEX 01 01:16:69
  TRACK 55 AUDIO
    TITLE "3:cjc004_3120"
    INDEX 01 01:17:49
  TRACK 56 AUDIO
    TITLE "0:"
    INDEX 01 01:19:03
  TRACK 57 AUDIO
    TITLE "4:cjc004_3121"
    INDEX 01 01:19:27
  TRACK 58 AUDIO
    TITLE "0:"
    INDEX 01 01:20:51
  TRACK 59 AUDIO
    TITLE "5:cjc004_3122"
    INDEX 01 01:21:00
  TRACK 60 AUDIO
    TITLE "0:"
    INDEX 01 01:24:55
